# xmcd
#
# Track frame offsets:
#	150
#	19210
#	37287
#	52077
#	65990
#	83000
#	98047
#	115397
#	136055
#	154962
#	169202
#
# Disc length: 2523 seconds
#
# Revision: 2
# Processed by: cddbd v1.4PL0 Copyright (c) Steve Scherf et al.
# Submitted via: audiograbber 1.81.02
#
DISCID=9d09d90b
DTITLE=Eriksen - Alt vende tebage
DYEAR=1995
DGENRE=Country
TTITLE0=Ingeplass og øvealt
TTITLE1=Sei det te meg
TTITLE2=Kanarifoggelens sang
TTITLE3=Mellom drøm og dag
TTITLE4=Ingen vei tebage
TTITLE5=Om og om igjen
TTITLE6=På vidle veier
TTITLE7=Tyggi frå USA
TTITLE8=Sønnavindvalsen
TTITLE9=Den bitraste blues
TTITLE10=Bedemaens dotter
EXTD=
EXTT0=
EXTT1=
EXTT2=
EXTT3=
EXTT4=
EXTT5=
EXTT6=
EXTT7=
EXTT8=
EXTT9=
EXTT10=
PLAYORDER=
